# xmcd
#
# Track frame offsets:
#	150
#	15430
#	30317
#	46760
#	60727
#	75469
#	91827
#	104760
#	120773
#	133695
#	152746
#	168567
#
# Disc length: 2461 seconds
#
# Revision: 0
# Processed by: cddbd v1.5.2PL0 Copyright (c) Steve Scherf et al.
# Submitted via: dBpowerAMP V4.0
#
DISCID=84099b0c
DTITLE=Various Artist - Norske Danseband vol.2 - CD 2
DYEAR=1900
DGENRE=Danseband
TTITLE0=Fryd and Gammen - Musikk er livet
TTITLE1=Ole Ivars - Je har slutta å drekke brenn`vin
TTITLE2=Jan Borseth - Vær glad i denne dagen
TTITLE3=Gunnar Fjeldseth Band - Årets største dag
TTITLE4=Can Dance - Hvis du byr meg på en kaffe
TTITLE5=Sakarina - En fin rød rose
TTITLE6=Dænsebændet - Et bittelite miniskjørt
TTITLE7=Ingemars - Æljjakta
TTITLE8=Trond Erics - Armen om min hals
TTITLE9=Lasse Johansens Orkester - Fem mann i et danseband
TTITLE10=Rikingan - Sommerregn
TTITLE11=Bjørns Orkester - Farfars gamle gyngestol
EXTD=
EXTT0=
EXTT1=
EXTT2=
EXTT3=
EXTT4=
EXTT5=
EXTT6=
EXTT7=
EXTT8=
EXTT9=
EXTT10=
EXTT11=
PLAYORDER=
